<svg width="512" height="512" viewBox="0 0 512 512" xmlns="http://www.w3.org/2000/svg">
  <!-- Background Gradient -->
  <defs>
    <linearGradient id="grad1" x1="0%" y1="0%" x2="100%" y2="100%">
      <stop offset="0%" style="stop-color:#667eea;stop-opacity:1" />
      <stop offset="100%" style="stop-color:#764ba2;stop-opacity:1" />
    </linearGradient>
  </defs>

  <!-- Background Circle -->
  <circle cx="256" cy="256" r="240" fill="url(#grad1)"/>

  <!-- Rocket Icon -->
  <g transform="translate(256, 256)">
    <!-- Rocket Body -->
    <path d="M 0,-120 L 40,-40 L 40,80 L 20,100 L -20,100 L -40,80 L -40,-40 Z"
          fill="white" opacity="0.95"/>

    <!-- Rocket Window -->
    <circle cx="0" cy="-40" r="25" fill="url(#grad1)"/>

    <!-- Rocket Flame -->
    <path d="M -20,100 L 0,140 L 20,100 Z" fill="#f59e0b" opacity="0.9"/>
    <path d="M -10,100 L 0,130 L 10,100 Z" fill="#fbbf24" opacity="0.9"/>

    <!-- Rocket Fins -->
    <path d="M -40,-20 L -70,20 L -40,40 Z" fill="white" opacity="0.8"/>
    <path d="M 40,-20 L 70,20 L 40,40 Z" fill="white" opacity="0.8"/>

    <!-- Stars -->
    <circle cx="-100" cy="-80" r="4" fill="white" opacity="0.6"/>
    <circle cx="90" cy="-100" r="3" fill="white" opacity="0.6"/>
    <circle cx="-80" cy="40" r="5" fill="white" opacity="0.6"/>
    <circle cx="100" cy="60" r="4" fill="white" opacity="0.6"/>
  </g>

  <!-- GT Letters (Alternative Design) -->
  <!-- Uncomment if you prefer letters over rocket -->
  <!--
  <text x="256" y="320" font-family="Arial, sans-serif" font-size="200"
        font-weight="bold" fill="white" text-anchor="middle">GT</text>
  -->
</svg>
